<?xml version="1.0" encoding="UTF-8" standalone="yes"?>
<svg xmlns="http://www.w3.org/2000/svg" viewBox="0 0 80 80" width="80" height="80" fill="#000000">
  <path d="M 59 10 A 1 1 0 0 0 58 11 A 1 1 0 0 0 59 12 A 1 1 0 0 0 60 11 A 1 1 0 0 0 59 10 z M 17.585938 12.560547 L 10.462891 32.289062 L 13.607422 32.289062 L 15.425781 27.052734 L 22.945312 27.052734 L 24.75 32.289062 L 28.003906 32.289062 L 20.880859 12.560547 L 17.585938 12.560547 z M 59 16 A 1 1 0 0 0 58 17 A 1 1 0 0 0 59 18 A 1 1 0 0 0 60 17 A 1 1 0 0 0 59 16 z M 19.076172 16.142578 L 19.308594 16.142578 L 22.166016 24.482422 L 16.205078 24.482422 L 19.076172 16.142578 z M 59 21 A 1 1 0 0 0 58 22 A 1 1 0 0 0 59 23 A 1 1 0 0 0 60 22 A 1 1 0 0 0 59 21 z M 59 25 A 1 1 0 0 0 58 26 A 1 1 0 0 0 59 27 A 1 1 0 0 0 60 26 A 1 1 0 0 0 59 25 z M 58.984375 28.986328 A 1.0001 1.0001 0 0 0 58 30 L 58 65.585938 L 49.707031 57.292969 L 48.292969 58.707031 L 58.205078 68.619141 A 1.0001 1.0001 0 0 0 58.396484 68.810547 L 59 69.414062 L 59.607422 68.806641 A 1.0001 1.0001 0 0 0 59.796875 68.617188 L 69.707031 58.707031 L 68.292969 57.292969 L 60 65.585938 L 60 30 A 1.0001 1.0001 0 0 0 58.984375 28.986328 z M 12.150391 47.160156 L 12.150391 49.949219 L 22.542969 49.949219 L 22.542969 50.181641 L 11.822266 64.6875 L 11.822266 66.888672 L 26.642578 66.888672 L 26.642578 64.099609 L 15.71875 64.099609 L 15.71875 63.867188 L 26.382812 49.361328 L 26.382812 47.160156 L 12.150391 47.160156 z"/>
</svg>
